<svg width="31" height="32" viewBox="0 0 31 32" fill="none" xmlns="http://www.w3.org/2000/svg">
<path d="M18.9781 8.22284L19.2385 7.59856C20.3354 8.0538 21.339 8.73442 22.2474 9.63953L22.2465 9.64043C23.1648 10.5527 23.8533 11.5562 24.312 12.6509C24.7716 13.7474 25.0005 14.9325 25.0005 16.2043C25.0005 17.4877 24.7707 18.6781 24.3102 19.7746C23.8506 20.8685 23.163 21.8657 22.2447 22.7645C21.3309 23.6652 20.3264 24.3395 19.2331 24.7903C18.1352 25.2429 16.9512 25.4683 15.6828 25.4683C14.3947 25.4683 13.1999 25.2438 12.0985 24.7921C10.9979 24.3413 9.99705 23.6652 9.094 22.7628L9.09311 22.7636C8.18467 21.8585 7.50155 20.8577 7.04464 19.7612C6.58773 18.6656 6.35883 17.4797 6.35883 16.2043C6.35883 14.9387 6.58773 13.7581 7.04374 12.6616C7.49975 11.5669 8.18288 10.5598 9.09131 9.64221C9.98897 8.73531 10.9872 8.0538 12.0868 7.59856L12.3471 8.22284C11.331 8.64319 10.4064 9.27462 9.57425 10.1153C8.72776 10.9704 8.0931 11.9059 7.67031 12.921C7.2493 13.9325 7.03836 15.0273 7.03836 16.2043C7.03836 17.392 7.24931 18.4912 7.67121 19.5018C8.09311 20.5134 8.72776 21.4418 9.57335 22.2852V22.286C10.4118 23.125 11.3399 23.7519 12.3552 24.1687C13.3705 24.5846 14.4791 24.7921 15.6819 24.7921C16.8641 24.7921 17.962 24.5846 18.9745 24.1669C19.9853 23.7502 20.9171 23.1232 21.7672 22.2852L21.7681 22.2843C22.6208 21.4498 23.2582 20.5268 23.6828 19.5171C24.1074 18.5046 24.3192 17.401 24.3192 16.2052C24.3192 15.021 24.1083 13.9227 23.6837 12.9103C23.2591 11.8969 22.6208 10.9659 21.7663 10.118H21.7654C20.9189 9.27462 19.9889 8.6423 18.9772 8.22284H18.9781ZM15.6828 0.9569C17.7807 0.9569 19.7313 1.33254 21.5356 2.08292C23.3381 2.83241 24.9898 3.95486 26.4915 5.44758H26.4924C27.9933 6.94298 29.1199 8.59132 29.8721 10.3917C30.6244 12.193 30.9996 14.1427 30.9996 16.2418C30.9996 18.3445 30.6235 20.2943 29.8721 22.092C29.1208 23.8879 27.9942 25.5282 26.4915 27.0119C24.996 28.4895 23.347 29.5976 21.5436 30.3372C19.7393 31.0769 17.786 31.4472 15.6828 31.4472V31.4463C13.5706 31.44 11.6119 31.0671 9.80764 30.3274C8.00424 29.5878 6.35703 28.4832 4.86871 27.0128L4.86782 27.0119C3.37501 25.5219 2.25383 23.8789 1.50519 22.0839C0.75564 20.2871 0.379517 18.34 0.379517 16.2436C0.379517 14.1499 0.75564 12.2037 1.50519 10.4024C2.25383 8.60384 3.37501 6.95371 4.86782 5.45026L4.86871 5.44937C6.3705 3.95665 8.02219 2.8342 9.82559 2.08471C11.6299 1.33433 13.5823 0.958688 15.6837 0.958688L15.6828 0.9569ZM21.2752 2.7063C19.5562 1.9917 17.6927 1.63305 15.6828 1.63305C13.6703 1.63305 11.8049 1.9908 10.085 2.7063C8.3642 3.42181 6.78522 4.49506 5.34717 5.92518C3.919 7.36423 2.84539 8.94192 2.13085 10.66C1.41631 12.3763 1.05905 14.2366 1.05905 16.2418C1.05905 18.2506 1.41721 20.1109 2.13085 21.8228C2.84539 23.5364 3.9181 25.1069 5.34717 26.5335C6.77266 27.9412 8.34535 28.9975 10.0653 29.7022C11.7879 30.4088 13.6613 30.7648 15.6828 30.7701V30.7683C17.6999 30.7683 19.5679 30.416 21.286 29.7121C23.0059 29.0073 24.5813 27.9475 26.0131 26.5326C27.4511 25.1123 28.5283 23.5453 29.2456 21.8317C29.9619 20.119 30.3201 18.256 30.3201 16.2409C30.3201 14.2295 29.9619 12.3656 29.2456 10.6493C28.5292 8.93297 27.4511 7.35797 26.0122 5.92428L26.0131 5.92339C24.575 4.49327 22.9961 3.42002 21.2752 2.70452V2.7063Z" fill="#3D4A39"/>
</svg>
